HIERARCHY
ROOT Hips
{
  OFFSET 0 0 0
  CHANNELS 6 Xposition Yposition Zposition Zrotation Yrotation Xrotation
  JOINT LeftThigh
  {
    OFFSET 8.409438 0 -5.917753
    CHANNELS 3 Zrotation Yrotation Xrotation
    JOINT LeftLeg
    {
      OFFSET 0 0 -42.358652
      CHANNELS 3 Zrotation Yrotation Xrotation
      JOINT LeftFoot
      {
        OFFSET 0 0 -39.357303
        CHANNELS 3 Zrotation Yrotation Xrotation
      }
    }
  }
  JOINT RightThigh
  {
    OFFSET -8.409438 0 -5.917753
    CHANNELS 3 Zrotation Yrotation Xrotation
    JOINT RightLeg
    {
      OFFSET 0 0 -42.358652
      CHANNELS 3 Zrotation Yrotation Xrotation
      JOINT RightFoot
      {
        OFFSET 0 0 -39.357303
        CHANNELS 3 Zrotation Yrotation Xrotation
      }
    }
  }
  JOINT SpineLow
  {
    OFFSET 0 0 4.719101
    CHANNELS 3 Zrotation Yrotation Xrotation
    JOINT SpineMid
    {
      OFFSET 0 0 12.899191
      CHANNELS 3 Zrotation Yrotation Xrotation
      JOINT Chest
      {
        OFFSET 0 0 12.899191
        CHANNELS 3 Zrotation Yrotation Xrotation
        JOINT LeftShoulder
        {
          OFFSET 7.550562 1.41573 9.438202
          CHANNELS 3 Zrotation Yrotation Xrotation
          JOINT LeftArm
          {
            OFFSET 9.155056 0 4.247191
            CHANNELS 3 Zrotation Yrotation Xrotation
            JOINT LeftForearm
            {
              OFFSET 0 0 25.771955
              CHANNELS 3 Zrotation Yrotation Xrotation
              JOINT LeftHand
              {
                OFFSET 0 0 25.197169
                CHANNELS 3 Zrotation Yrotation Xrotation
              }
            }
          }
        }
        JOINT RightShoulder
        {
          OFFSET -7.550562 1.41573 9.438202
          CHANNELS 3 Zrotation Yrotation Xrotation
          JOINT RightArm
          {
            OFFSET -9.155056 0 4.247191
            CHANNELS 3 Zrotation Yrotation Xrotation
            JOINT RightForearm
            {
              OFFSET 0 0 -25.771955
              CHANNELS 3 Zrotation Yrotation Xrotation
              JOINT RightHand
              {
                OFFSET 0 0 -25.197169
                CHANNELS 3 Zrotation Yrotation Xrotation
              }
            }
          }
        }
        JOINT Neck
        {
          OFFSET 0 0 15.101124
          CHANNELS 3 Zrotation Yrotation Xrotation
          JOINT Head
          {
            OFFSET 0 0 11.325843
            CHANNELS 3 Zrotation Yrotation Xrotation
            End Site
            {
              OFFSET 0 0 14.157303
            }
          }
        }
      }
    }
  }
}
MOTION
Frames: 10
Frame Time: 0.0
0.0  89.887642  0.0  -0.195785  -12.469968  -94.593473  10.846148  -22.885546  -13.767721  -4.906096  21.768947  36.612746  3.204488  2.079108  2.216416  -20.259628  11.591792  -23.421113  -11.366059  12.523053  35.731724  8.896817  3.38197  -1.066835  0.801362  0.073246  1.589725  2.194172  0.147432  4.347239  2.194172  0.147432  4.347239  -24.819602  21.891502  0.544379  176.867065  55.307211  -146.120852  10.085794  -6.081429  13.740831  99.458378  4.234039  -12.730163  -21.551751  1.199381  20.089537  48.670451  12.193848  42.946997  35.781235  -35.149758  -118.415937  69.040177  -3.212159  -20.66213  -9.506271  -0.225051  -2.49366  -7.130752  -0.130034  -1.874281  
0.0  89.887642  0.0  -0.110363  -12.498002  -94.605535  11.451522  -22.780779  -13.700822  -5.361765  21.596567  36.266312  3.116529  2.105981  2.243527  -20.179278  11.687693  -23.408338  -11.34778  12.379589  35.611316  8.872588  3.31979  -0.964753  0.826178  0.092114  1.568238  2.263161  0.198079  4.289206  2.263161  0.198079  4.289206  -24.685521  21.911427  0.58154  176.454387  55.407535  -146.338494  10.070445  -6.139826  13.870705  99.544461  4.289534  -12.649361  -21.486621  1.375309  20.152263  48.857492  12.384283  43.05211  36.009068  -35.294671  -118.498205  69.106619  -3.095952  -20.652577  -9.581131  -0.179394  -2.146204  -7.186577  -0.100925  -1.612935  
0.0  89.887642  0.0  -0.067665  -12.43011  -94.629246  11.823052  -22.687201  -13.725731  -5.662694  21.383202  36.07178  2.950654  2.074543  2.231831  -19.977482  11.805852  -23.303792  -11.468816  12.234364  35.480053  8.847356  3.270472  -0.86567  0.814638  0.09948  1.535321  2.23202  0.220061  4.199463  2.23202  0.220061  4.199463  -24.324793  22.042831  0.712806  176.558119  55.347628  -146.388455  10.287398  -6.225381  14.36652  99.659763  4.331307  -12.602648  -21.219152  1.527536  20.281562  48.965626  12.584375  43.090804  36.163616  -35.44158  -118.56692  69.128204  -2.994917  -20.62422  -9.567696  -0.076755  -1.790144  -7.176069  -0.029546  -1.3442  
0.0  89.887642  0.0  -0.05248  -12.347395  -94.681228  12.125322  -22.665154  -13.672484  -5.966642  21.25382  35.843381  2.934259  2.096043  2.284919  -20.145552  11.857081  -23.327952  -11.268577  12.007485  35.452602  8.848678  3.232371  -0.763878  0.831654  0.099578  1.520519  2.278477  0.219759  4.159059  2.278477  0.219759  4.159059  -24.211323  22.124086  0.793694  176.452542  55.375885  -146.423604  10.32346  -6.383021  14.65419  99.703636  4.281843  -12.512973  -21.21203  1.567302  20.296337  49.099081  12.760321  43.110385  36.301283  -35.574968  -118.553736  69.184074  -2.932282  -20.561228  -9.683013  0.032251  -1.557787  -7.262233  0.048889  -1.168177  
0.0  89.887642  0.0  -0.024682  -12.145861  -94.757766  11.906077  -22.603591  -13.695647  -5.997099  21.077062  35.798029  3.004089  2.153064  2.377784  -20.394614  11.916796  -23.307054  -10.730261  11.693883  35.488649  8.754204  3.192082  -0.679153  0.81353  0.102527  1.506857  2.229104  0.229416  4.12177  2.229104  0.229416  4.12177  -24.111849  22.147303  0.894274  176.314188  55.376598  -146.357501  10.148746  -6.555117  14.683614  99.77766  4.129774  -12.504846  -21.087684  1.550349  20.329104  49.194772  12.891705  43.074454  36.367253  -35.645462  -118.46959  69.181564  -2.914912  -20.512633  -9.701606  0.157983  -1.380389  -7.275888  0.140446  -1.033092  
0.0  89.887642  0.0  0.025937  -11.943437  -94.884113  11.636081  -22.629077  -13.532468  -5.912752  20.997845  35.728344  3.046102  2.166873  2.442685  -20.781809  11.995238  -23.27194  -10.468024  11.512841  35.430339  8.694286  3.165564  -0.627868  0.815678  0.107308  1.51626  2.235303  0.242026  4.147639  2.235303  0.242026  4.147639  -24.076842  22.173492  0.938961  176.370058  55.298392  -146.27874  10.091424  -6.827157  14.963811  99.792544  3.976694  -12.471448  -21.155065  1.450622  20.247487  49.31155  12.978807  43.027357  36.305082  -35.673119  -118.270417  69.179199  -2.983272  -20.543684  -9.802058  0.261883  -1.328135  -7.351003  0.217784  -0.992201  
0.0  89.887642  0.0  0.084933  -11.624593  -94.959601  11.089197  -22.643685  -13.420421  -5.87262  20.977365  35.577014  3.11418  2.204238  2.542557  -21.287288  12.040799  -23.23847  -10.228877  11.396697  35.339605  8.632572  3.147471  -0.601536  0.788339  0.108293  1.520738  2.160682  0.246286  4.159826  2.160682  0.246286  4.159826  -24.091774  22.172664  0.958929  176.067015  55.337821  -146.308332  9.833858  -7.044565  15.151328  99.663839  3.982433  -12.369348  -21.118846  1.350386  20.173521  49.413716  13.038075  42.940958  36.315462  -35.634205  -118.050731  69.266068  -3.069026  -20.529275  -9.7952  0.385794  -1.309527  -7.345586  0.310433  -0.976254  
0.0  89.887642  0.0  0.095982  -11.336497  -95.010578  10.478384  -22.702541  -13.316669  -5.601835  20.914  35.571447  3.113767  2.232319  2.628708  -21.769428  12.050329  -23.195794  -10.083203  11.315111  35.210058  8.663183  3.136544  -0.554136  0.770794  0.103506  1.530773  2.112475  0.233989  4.18704  2.112475  0.233989  4.18704  -24.091391  22.188282  0.93862  175.927768  55.31003  -146.378133  9.681467  -7.244229  15.372297  99.624054  3.803318  -12.211833  -21.191062  1.226473  20.026889  49.526037  13.06718  42.829119  36.208593  -35.61923  -117.811716  69.337356  -3.199339  -20.497866  -9.859713  0.462343  -1.370415  -7.393752  0.368985  -1.02066  
0.0  89.887642  0.0  0.100218  -11.02672  -95.051231  10.01916  -22.747439  -13.14839  -5.706141  20.953352  35.300809  3.046731  2.238423  2.676236  -22.275819  12.020814  -23.113407  -9.966817  11.253496  35.032783  8.751304  3.174732  -0.523809  0.764441  0.094639  1.555278  2.094621  0.209392  4.253715  2.094621  0.209392  4.253715  -24.262599  22.113759  0.85883  175.925725  55.30113  -146.40375  9.657091  -7.345112  15.774949  99.455194  3.746557  -12.004989  -21.202203  1.079312  19.877027  49.659881  13.121479  42.708152  36.088212  -35.638358  -117.692599  69.460983  -3.302866  -20.414922  -9.92545  0.527735  -1.477943  -7.44281  0.419941  -1.100221  
0.0  89.887642  0.0  0.076299  -10.684797  -95.0761  9.501414  -22.747589  -13.097961  -5.764898  20.944753  35.166799  3.110598  2.27921  2.755043  -22.789684  12.002167  -23.034295  -9.770583  11.127387  34.88401  8.779613  3.181546  -0.485081  0.731184  0.084133  1.571924  2.003119  0.182327  4.298799  2.003119  0.182327  4.298799  -24.252926  22.086513  0.79219  175.797023  55.267285  -146.480265  9.59815  -7.507274  16.027502  99.32939  3.593905  -11.725111  -21.250261  0.960757  19.667005  49.768622  13.147654  42.525615  36.061986  -35.685709  -117.484933  69.645896  -3.499711  -20.276302  -9.978112  0.542962  -1.595871  -7.482171  0.433421  -1.188403  
